<?xml version="1.0" encoding="utf-8"?>
<!-- Generator: Adobe Illustrator 19.1.0, SVG Export Plug-In . SVG Version: 6.00 Build 0)  -->
<svg version="1.1" id="Layer_1" xmlns="http://www.w3.org/2000/svg" xmlns:xlink="http://www.w3.org/1999/xlink" x="0px" y="0px"
	 viewBox="0 0 32 32" enable-background="new 0 0 32 32" xml:space="preserve">
<g>
	<path d="M16,0c-2.9,0-5.6,0.7-8.1,2.2C5.5,3.6,3.6,5.5,2.2,7.9C0.7,10.4,0,13.1,0,16c0,2.9,0.7,5.6,2.2,8.1
		c1.4,2.4,3.3,4.3,5.7,5.7c2.5,1.5,5.2,2.2,8.1,2.2c2.9,0,5.6-0.7,8.1-2.2c2.4-1.4,4.3-3.3,5.7-5.7c1.5-2.5,2.2-5.2,2.2-8.1
		c0-2.9-0.7-5.6-2.2-8.1c-1.4-2.4-3.3-4.3-5.7-5.7C21.6,0.7,18.9,0,16,0z M23.4,3.4c2.2,1.3,4,3,5.3,5.3c1.3,2.3,2,4.7,2,7.4
		s-0.7,5.1-2,7.4c-1.3,2.2-3.1,4-5.3,5.3c-2.3,1.3-4.7,2-7.4,2c-2.7,0-5.1-0.7-7.4-2c-2.2-1.3-4-3-5.3-5.3c-1.3-2.3-2-4.7-2-7.4
		s0.7-5.1,2-7.4c1.3-2.2,3.1-4,5.3-5.3c2.3-1.3,4.7-2,7.4-2C18.7,1.4,21.1,2,23.4,3.4z M6.1,16.3l5.4,5.4c0.1,0.1,0.2,0.1,0.2,0.2
		C11.9,22,12,22,12,22c0.2,0,0.3-0.1,0.5-0.2s0.2-0.3,0.2-0.5s-0.1-0.3-0.2-0.5l-4.2-4.2h17.1c0.2,0,0.4-0.1,0.5-0.2
		c0.1-0.1,0.2-0.3,0.2-0.5c0-0.2-0.1-0.4-0.2-0.5c-0.1-0.1-0.3-0.2-0.5-0.2H8.3l4.2-4.2c0.1-0.1,0.2-0.3,0.2-0.5
		c0-0.2-0.1-0.3-0.2-0.5C12.3,10.1,12.2,10,12,10s-0.3,0.1-0.5,0.2l-5.3,5.3l-0.1,0.2C6,16,6,16.1,6.1,16.3
		C6.1,16.3,6.1,16.3,6.1,16.3z"/>
</g>
</svg>
